<svg width="120" height="120" viewBox="0 0 120 120" fill="none" xmlns="http://www.w3.org/2000/svg">
<path d="M36.6184 32.0336C33.7141 37.423 26.7878 40.9926 19.7566 40.4276C12.6709 40.0699 5.80469 35.6235 2.44469 29.2381C-1.02031 22.8876 -0.761568 14.8329 2.96406 8.94279C4.74792 6.04623 7.28639 3.66535 10.3197 2.04379C13.2897 0.546958 16.5672 -0.19779 19.6666 0.225946C14.3116 3.25079 11.0303 7.57437 9.62406 12.0429C8.92941 14.1685 8.67197 16.4077 8.8666 18.6312C9.06123 20.8547 9.70406 23.0185 10.758 24.9977C11.812 26.9769 13.2562 28.7322 15.0073 30.1624C16.7583 31.5926 18.7816 32.6694 20.9603 33.3305C25.5372 34.8237 30.9916 34.5485 36.6184 32.0336ZM26.9716 6.16925L23.3941 0.0938721H37.7022L34.1247 6.16008L30.5472 12.2134L26.9716 6.16925Z" fill="#D38E00"/>
<path d="M99.6892 40.4292H96.4529C93.5985 40.4308 90.8244 39.5055 88.5654 37.7985C86.3065 36.0915 84.6905 33.6992 83.971 30.9969C83.2004 28.095 82.9941 24.9545 82.9941 21.2106V0H92.386V21.2143C92.386 37.5621 97.1129 39.2607 99.6892 40.4292ZM110.605 21.2143V0H119.999V21.2161C119.999 24.96 119.793 28.0968 119.024 31.0024C118.304 33.7056 116.688 36.0986 114.428 37.8057C112.167 39.5128 109.392 40.4375 106.537 40.4347H103.3C105.88 39.2643 110.613 37.5621 110.613 21.2143H110.605Z" fill="#D38E00"/>
<path d="M0 120V79.5691H9.39375V120H0ZM26.7844 99.4388L39.6994 119.941H28.5375L18.5569 100.712C19.2619 99.2975 19.95 98.3125 20.4056 97.2449L20.7806 96.5295C20.8706 96.2727 20.9681 96.0416 21.06 95.8086C21.1519 95.5756 21.2475 95.3665 21.3412 95.1592C21.435 94.952 21.4575 94.7025 21.5287 94.5025C21.9548 93.1424 22.2166 91.7381 22.3088 90.3184C22.4231 88.9155 22.3347 87.5038 22.0462 86.125C21.7331 84.4264 20.9606 82.4784 19.6612 79.7488C22.6162 78.9839 25.7156 79.9194 28.0987 82.0143C30.4819 84.1091 31.9275 87.499 31.6762 90.8558C31.4887 94.2145 29.7 97.3861 27.1425 99.2077C27.0375 99.2884 26.9025 99.3581 26.7844 99.4388Z" fill="#D38E00"/>
<path d="M86.9298 113.884L90.5054 119.938H76.1973L79.7748 113.884L83.3523 107.822L86.9298 113.884ZM119.999 119.938H110.695L94.8667 88.0878L99.8673 79.5709L119.999 119.938Z" fill="#D38E00"/>
<path d="M0.140624 47.7686L0 45.6499H1.09687L0.961868 47.7686L1.09687 50.1147H0L0.140624 47.7686Z" fill="white"/>
<path d="M11.8484 47.4421L11.4227 50.1147H10.4121L11.404 45.6499H11.8371L13.1684 48.6032L14.5877 45.6499H15.0359L15.9902 50.1147H14.9815L14.5484 47.4054L13.1852 50.1147H13.1121L11.8484 47.4421Z" fill="white"/>
<path d="M20.1582 47.8639C20.1582 46.4588 21.1445 45.5894 22.4401 45.5894C23.7357 45.5894 24.722 46.4588 24.722 47.8639C24.722 49.0067 23.822 50.1752 22.4401 50.1752C21.0582 50.1752 20.1582 49.0379 20.1582 47.8639ZM23.822 47.8823C23.822 46.978 23.2745 46.3873 22.4401 46.3928C21.6057 46.3983 21.0582 46.989 21.0582 47.8768C21.0582 48.7646 21.6432 49.4488 22.4401 49.4598C23.237 49.4708 23.822 48.7628 23.822 47.8823Z" fill="white"/>
<path d="M29.0252 46.7688C29.0252 46.1378 29.5126 45.5894 30.4314 45.5894C30.8316 45.5925 31.2307 45.6306 31.6239 45.7031L31.7458 46.745H31.6858C31.2339 46.4001 30.8814 46.2497 30.5158 46.2497C30.2064 46.2497 29.9814 46.4332 29.9814 46.6845C29.9814 46.9358 30.0714 47.0715 30.467 47.3338L30.9058 47.6255C31.4683 48.007 31.8002 48.3225 31.8002 48.9095C31.8002 49.4965 31.3933 50.1734 30.3527 50.1734C29.9453 50.1664 29.5396 50.1203 29.1414 50.0358L29.0195 48.9572H29.0795C29.6514 49.4103 29.9983 49.5589 30.3095 49.5589C30.3801 49.5663 30.4514 49.5588 30.5188 49.5368C30.5861 49.5149 30.6478 49.479 30.6997 49.4317C30.7517 49.3844 30.7926 49.3267 30.8197 49.2626C30.8469 49.1984 30.8596 49.1293 30.857 49.0599C30.857 48.7683 30.7483 48.583 30.2064 48.2437L29.7864 47.9813C29.2014 47.62 29.0252 47.1797 29.0252 46.7688Z" fill="white"/>
<path d="M38.2571 46.2387L38.4334 50.1147H37.3496L37.5371 46.2442L35.9002 46.6551H35.8496L35.9771 45.6499H39.8527L39.9746 46.6551H39.9146L38.2571 46.2387Z" fill="white"/>
<path d="M45.263 50.1147H44.168L44.3086 47.7686L44.168 45.6499H45.683C46.6936 45.6499 47.2055 46.125 47.2055 46.7982C47.2055 47.299 46.9317 47.7337 46.2436 47.941L47.8017 50.056V50.1147H46.5774L45.5367 48.0602V47.7869C46.043 47.7044 46.3111 47.4824 46.3111 47.0257C46.3111 46.6313 45.9361 46.3928 45.4823 46.3928H45.2142L45.1298 47.7686L45.263 50.1147Z" fill="white"/>
<path d="M54.5199 49.0711H52.9317L52.598 50.113H51.5742V50.0543L53.5711 45.5858H54.0999L55.9936 50.0525V50.1112H54.8686L54.5199 49.0711ZM53.7173 46.613L53.1136 48.5061H54.338L53.7173 46.613Z" fill="white"/>
<path d="M65.287 47.7686L65.1464 45.6499H66.8864C68.2139 45.6499 69.1814 46.3837 69.1814 47.7924C69.1814 49.115 68.2627 50.1147 66.832 50.1147H65.1445L65.287 47.7686ZM66.1983 49.4012H66.832C67.6477 49.4012 68.2814 48.8508 68.2814 47.7814C68.2814 46.8826 67.7189 46.3928 66.7814 46.3928H66.202L66.1177 47.7686L66.1983 49.4012Z" fill="white"/>
<path d="M73.8086 47.7686L73.668 45.6499H76.2798L76.4073 46.5487H76.3511L74.7386 46.1672L74.6467 47.5301L76.188 47.4824L76.1261 48.2565L74.6467 47.996L74.7386 49.5919L76.3642 49.115H76.4242L76.3023 50.1147H73.6774L73.8086 47.7686Z" fill="white"/>
<path d="M88.3167 49.0711H86.7286L86.393 50.113H85.3711V50.0543L87.368 45.5858H87.8967L89.7905 50.0525V50.1112H88.6655L88.3167 49.0711ZM87.5124 46.613L86.9105 48.5061H88.1349L87.5124 46.613Z" fill="white"/>
<path d="M95.054 50.1147H93.959L94.0996 47.7686L93.959 45.6499H95.4759C96.4865 45.6499 96.9984 46.125 96.9984 46.7982C96.9984 47.299 96.7246 47.7337 96.0365 47.941L97.5946 50.056V50.1147H96.3702L95.3296 48.0602V47.7869C95.8358 47.7044 96.104 47.4824 96.104 47.0257C96.104 46.6313 95.729 46.3928 95.2752 46.3928H95.0071L94.9227 47.7686L95.054 50.1147Z" fill="white"/>
<path d="M103.751 46.2387L103.927 50.1147H102.837L103.025 46.2442L101.386 46.6551H101.326L101.454 45.6499H105.331L105.453 46.6551H105.391L103.751 46.2387Z" fill="white"/>
<path d="M109.801 47.7686L109.66 45.6499H112.272L112.4 46.5487H112.34L110.725 46.1672L110.635 47.5301L112.175 47.4824L112.115 48.2565L110.635 47.996L110.725 49.5919L112.351 49.115H112.413L112.291 50.1147H109.666L109.801 47.7686Z" fill="white"/>
<path d="M116.662 46.7688C116.662 46.1378 117.149 45.5894 118.068 45.5894C118.469 45.5926 118.869 45.6306 119.263 45.7031L119.384 46.745H119.323C118.873 46.4001 118.52 46.2497 118.154 46.2497C117.843 46.2497 117.618 46.4332 117.618 46.6845C117.618 46.9358 117.71 47.0715 118.106 47.3338L118.544 47.6255C119.107 48.007 119.439 48.3225 119.439 48.9095C119.439 49.4965 119.03 50.1734 117.989 50.1734C117.582 50.1664 117.176 50.1203 116.778 50.0358L116.656 48.9572H116.718C117.281 49.4103 117.637 49.5589 117.946 49.5589C118.017 49.5663 118.088 49.5587 118.156 49.5368C118.223 49.5149 118.285 49.4791 118.337 49.4318C118.389 49.3845 118.43 49.3268 118.458 49.2627C118.485 49.1985 118.498 49.1294 118.496 49.0599C118.496 48.7683 118.385 48.583 117.843 48.2437L117.423 47.9813C116.849 47.62 116.662 47.1797 116.662 46.7688Z" fill="white"/>
<path d="M3.08156 63.6265C1.51969 63.6265 0.304688 62.5809 0.304688 60.875C0.304688 59.169 1.42969 58.173 3.17531 58.173C3.68788 58.1901 4.19825 58.2471 4.70156 58.3436L4.85343 59.6808H4.7803C4.28021 59.3042 3.66169 59.1096 3.03093 59.1305C2.26406 59.1305 1.37531 59.5836 1.37531 60.8126C1.37531 61.8747 1.90218 62.7442 3.13968 62.7442C3.71007 62.748 4.26874 62.5858 4.74468 62.2783H4.81593L4.67155 63.2174C4.18412 63.4799 3.63792 63.6205 3.08156 63.6265Z" fill="white"/>
<path d="M10.2548 60.7687L10.0898 58.252H13.1911L13.343 59.3196H13.2698L11.3555 58.8665L11.2467 60.4862L13.0748 60.4294L13.0036 61.3465L11.2467 61.0347L11.3555 62.9296L13.2848 62.3646H13.3505L13.2042 63.5533H10.0898L10.2548 60.7687ZM10.1911 57.7567L11.1155 56.7386H12.3023L13.2267 57.7567H12.3155L11.708 57.311L11.1005 57.7567H10.1911Z" fill="white"/>
<path d="M19.5241 60.2184L19.8279 63.5569H18.5566L18.701 58.252H18.9241L22.2504 61.6474L21.9973 58.252H23.2685L23.0379 63.5624H22.8129L19.5241 60.2184Z" fill="white"/>
<path d="M28.8802 60.7687L28.7246 58.252H30.0259L29.8496 60.7687L30.009 63.5569H28.7246L28.8802 60.7687Z" fill="white"/>
<path d="M38.1148 63.6265C36.5529 63.6265 35.3379 62.5809 35.3379 60.875C35.3379 59.169 36.4629 58.173 38.2085 58.173C38.7205 58.19 39.2302 58.247 39.7329 58.3436L39.8848 59.6808H39.8135C39.3134 59.3042 38.6949 59.1096 38.0641 59.1305C37.2973 59.1305 36.4085 59.5836 36.4085 60.8126C36.4085 61.8747 36.9354 62.7442 38.171 62.7442C38.7415 62.7486 39.3003 62.5863 39.776 62.2783H39.8492L39.7048 63.2174C39.2171 63.4794 38.6711 63.6199 38.1148 63.6265Z" fill="white"/>
<path d="M48.0636 62.3187H46.1755L45.7873 63.5624H44.5742V63.4909L46.9442 58.1859H47.5742L49.8242 63.4909V63.5624H48.4686L48.0636 62.3187ZM47.1092 59.3966L46.393 61.6474H47.8498L47.1092 59.3966Z" fill="white"/>
<path d="M54.5563 59.5819C54.5563 58.8316 55.1338 58.1804 56.2269 58.1804C56.702 58.1845 57.1757 58.2299 57.6426 58.3162L57.7869 59.5525H57.7157C57.1794 59.1435 56.7613 58.9655 56.3282 58.9655C55.9532 58.9655 55.6907 59.1857 55.6907 59.4828C55.6907 59.7433 55.7994 59.9414 56.2701 60.2532L56.7894 60.5999C57.4701 61.053 57.8526 61.4272 57.8526 62.1279C57.8526 62.8287 57.3688 63.6266 56.1313 63.6266C55.6476 63.6187 55.1659 63.564 54.6932 63.4634L54.5488 62.1793H54.622C55.3007 62.7168 55.7132 62.8929 56.0807 62.8929C56.1647 62.9016 56.2495 62.8926 56.3296 62.8664C56.4097 62.8402 56.4831 62.7975 56.5448 62.7411C56.6065 62.6847 56.6551 62.6161 56.6873 62.5397C56.7195 62.4633 56.7345 62.3811 56.7313 62.2985C56.7313 61.9518 56.6019 61.7336 55.9588 61.33L55.4601 61.0182C54.7663 60.5926 54.5563 60.0771 54.5563 59.5819Z" fill="white"/>
<path d="M70.0084 60.2184L70.3121 63.5569H69.0371L69.1815 58.252H69.4065L72.7308 61.6474L72.4777 58.252H73.7509L73.5202 63.5624H73.2971L70.0084 60.2184Z" fill="white"/>
<path d="M79.3661 60.7687L79.1992 58.252H82.3005L82.4524 59.3195H82.3811L80.4648 58.8665L80.3561 60.4862L82.1842 60.4293L82.113 61.3465L80.3561 61.0347L80.4648 62.9296L82.3942 62.3646H82.4674L82.323 63.5532H79.1992L79.3661 60.7687Z" fill="white"/>
<path d="M92.1108 58.3585L92.2626 59.6884H92.1895C91.6712 59.3205 91.0448 59.1273 90.4045 59.1381C89.4295 59.1381 88.612 59.5912 88.612 60.8202C88.612 61.9208 89.2401 62.7518 90.4045 62.7518C90.8171 62.7697 91.2268 62.6771 91.5895 62.4839L90.8395 60.9908V60.9192H92.4314L92.3001 63.0636C91.729 63.4417 91.0528 63.6389 90.3633 63.6286C88.7808 63.6286 87.5508 62.6105 87.5508 60.877C87.5508 59.2004 88.6214 58.175 90.5152 58.175C91.0517 58.1873 91.5859 58.2487 92.1108 58.3585Z" fill="white"/>
<path d="M98.9575 63.5623H97.6562L97.8231 60.774L97.6562 58.2573H99.4562C100.656 58.2573 101.264 58.8223 101.264 59.6221C101.264 60.2164 100.939 60.7227 100.122 60.9795L101.973 63.4907V63.5623H100.519L99.2837 61.1207V60.7961C99.8837 60.697 100.201 60.4292 100.201 59.8917C100.201 59.424 99.76 59.1415 99.2181 59.1415H98.8994L98.7981 60.774L98.9575 63.5623Z" fill="white"/>
<path d="M109.956 62.3187H108.07L107.672 63.5569H106.457V63.4854L108.829 58.1804H109.457L111.707 63.4854V63.5624H110.363L109.956 62.3187ZM109.001 59.3966L108.287 61.6473H109.74L109.001 59.3966Z" fill="white"/>
<path d="M116.449 59.5819C116.449 58.8316 117.028 58.1804 118.12 58.1804C118.595 58.1845 119.07 58.2299 119.537 58.3162L119.682 59.5525H119.608C119.074 59.1435 118.656 58.9655 118.221 58.9655C117.846 58.9655 117.585 59.1857 117.585 59.4828C117.585 59.7433 117.694 59.9414 118.163 60.2532L118.684 60.5999C119.363 61.053 119.747 61.4272 119.747 62.1279C119.747 62.8287 119.262 63.6266 118.026 63.6266C117.542 63.6189 117.06 63.5642 116.588 63.4634L116.443 62.1793H116.515C117.195 62.7168 117.606 62.8929 117.975 62.8929C118.059 62.9016 118.144 62.8926 118.224 62.8664C118.304 62.8402 118.378 62.7975 118.439 62.7411C118.501 62.6847 118.55 62.6161 118.582 62.5397C118.614 62.4633 118.629 62.3811 118.626 62.2985C118.626 61.9518 118.496 61.7336 117.853 61.33L117.355 61.0182C116.663 60.5926 116.449 60.0771 116.449 59.5819Z" fill="white"/>
<path d="M0.678673 72.3875L0.560547 70.6045H2.02493C3.14055 70.6045 3.95431 71.2153 3.95431 72.4077C3.95431 73.5193 3.17993 74.3612 1.97805 74.3612H0.560547L0.678673 72.3875ZM1.44556 73.7596H1.97805C2.6643 73.7596 3.1968 73.3047 3.1968 72.3985C3.1968 71.6409 2.72056 71.2318 1.92743 71.2318H1.43993L1.36867 72.3875L1.44556 73.7596Z" fill="white"/>
<path d="M9.88375 72.3875L9.76562 70.6045H11.9631L12.07 71.3621H12.0194L10.6619 71.0411L10.585 72.1875L11.8806 72.1472L11.83 72.7984L10.585 72.5783L10.6619 73.9192L12.0288 73.5193H12.0794L11.9781 74.3612H9.76562L9.88375 72.3875Z" fill="white"/>
<path d="M25.0202 74.3612H24.0977L24.2158 72.3875L24.0977 70.6045H25.4102C26.312 70.6045 26.807 71.0759 26.807 71.6868C26.807 72.3783 26.3514 72.9231 25.2677 72.958V72.5177C25.7739 72.5177 26.0552 72.2884 26.0552 71.8317C26.0552 71.4648 25.7739 71.2318 25.1552 71.2318H24.9752L24.9039 72.3875L25.0202 74.3612Z" fill="white"/>
<path d="M32.3989 72.4682C32.3989 71.2868 33.2277 70.5549 34.3189 70.5549C35.4102 70.5549 36.2371 71.2887 36.2371 72.4682C36.2371 73.4294 35.4871 74.4108 34.3189 74.4108C34.0621 74.4079 33.8083 74.3552 33.5724 74.2558C33.3365 74.1564 33.1231 74.0122 32.9445 73.8315C32.7659 73.6508 32.6258 73.4373 32.5321 73.2033C32.4385 72.9693 32.3932 72.7194 32.3989 72.4682ZM35.4796 72.4828C35.4796 71.7216 35.0183 71.2263 34.3189 71.2318C33.6196 71.2373 33.1564 71.7308 33.1564 72.4773C33.1564 73.2239 33.6477 73.7999 34.3189 73.8091C34.9902 73.8183 35.4739 73.2239 35.4739 72.4828H35.4796Z" fill="white"/>
<path d="M42.9734 74.3612H42.0527L42.1708 72.3875L42.0527 70.6045H43.3277C44.1771 70.6045 44.6065 71.0062 44.6065 71.5712C44.6065 71.9913 44.3759 72.3581 43.7984 72.5324L45.1109 74.3099V74.3612H44.0815L43.2059 72.6333V72.4022C43.6315 72.3325 43.8565 72.1472 43.8565 71.762C43.8565 71.4318 43.5434 71.2318 43.159 71.2318H42.934L42.8627 72.3875L42.9734 74.3612Z" fill="white"/>
<path d="M52.3352 71.1017L52.4833 74.3614H51.5665L51.7315 71.1054L50.3534 71.4503H50.3027L50.4096 70.6028H53.6627L53.7658 71.4503H53.7152L52.3352 71.1017Z" fill="white"/>
<path d="M59.0142 72.4682C59.0142 71.2868 59.8429 70.5549 60.9341 70.5549C62.0254 70.5549 62.8522 71.2887 62.8522 72.4682C62.8522 73.4294 62.1023 74.4108 60.9341 74.4108C60.6773 74.4079 60.4235 74.3552 60.1876 74.2558C59.9517 74.1564 59.7383 74.0122 59.5597 73.8315C59.3812 73.6508 59.241 73.4373 59.1474 73.2033C59.0537 72.9693 59.0084 72.7194 59.0142 72.4682ZM62.0947 72.4828C62.0947 71.7216 61.6354 71.2263 60.9341 71.2318C60.2329 71.2373 59.7717 71.7308 59.7717 72.4773C59.7717 73.2239 60.2629 73.7999 60.9341 73.8091C61.6054 73.8183 62.1004 73.2239 62.1004 72.4828H62.0947Z" fill="white"/>
<path d="M76.9925 73.4844H75.6575L75.3763 74.3612H74.5156V74.3099L76.2031 70.5549H76.6494L78.2413 74.3099V74.3612H77.2869L76.9925 73.4844ZM76.3175 71.4171L75.8113 73.0093H76.8388L76.3175 71.4171Z" fill="white"/>
<path d="M83.901 72.3875L83.7829 70.6045H84.6848L84.561 73.9063L86.076 73.4808H86.1285L86.0254 74.3631H83.7754L83.901 72.3875Z" fill="white"/>
<path d="M91.9736 72.3875L91.8555 70.6045H94.0511L94.158 71.3621H94.1074L92.7517 71.0411L92.6749 72.1875L93.9686 72.1472L93.918 72.7984L92.6749 72.5783L92.7517 73.9192L94.1168 73.5193H94.1693L94.0661 74.3612H91.8555L91.9736 72.3875Z" fill="white"/>
<path d="M103.045 70.6795L103.152 71.6206H103.101C102.734 71.3608 102.291 71.2244 101.837 71.2317C101.146 71.2317 100.568 71.5509 100.568 72.4222C100.568 73.1981 101.012 73.7888 101.837 73.7888C102.129 73.8035 102.418 73.7401 102.676 73.6053L102.139 72.5487V72.4974H103.264L103.172 74.0162C102.768 74.2836 102.29 74.4231 101.802 74.4161C100.677 74.4161 99.8105 73.6952 99.8105 72.4735C99.8105 71.2867 100.561 70.5603 101.909 70.5603C102.29 70.5658 102.671 70.6057 103.045 70.6795Z" fill="white"/>
<path d="M109.938 74.3612H109.016L109.134 72.3875L109.016 70.6045H110.291C111.14 70.6045 111.571 71.0062 111.571 71.5712C111.571 71.9913 111.341 72.3581 110.761 72.5324L112.074 74.3099V74.3612H111.037L110.163 72.6333V72.4022C110.587 72.3325 110.812 72.1472 110.812 71.762C110.812 71.4318 110.501 71.2318 110.116 71.2318H109.891L109.82 72.3875L109.938 74.3612Z" fill="white"/>
<path d="M117.804 72.3875L117.686 70.6045H119.881L119.99 71.3621H119.937L118.582 71.0411L118.505 72.1875L119.801 72.1472L119.748 72.7984L118.505 72.5783L118.582 73.9192L119.949 73.5193H119.999L119.898 74.3612H117.686L117.804 72.3875Z" fill="white"/>
</svg>
